<svg width="307" height="355" fill="none" xmlns="http://www.w3.org/2000/svg"><mask id="a" fill="#fff"><path fill-rule="evenodd" clip-rule="evenodd" d="M205.5 411C92.236 411 0 318.764 0 205.5S92.236 0 205.5 0 411 92.236 411 205.5c0 65.862-31.188 124.613-79.562 162.254 2.343-2.36 3.857-5.553 4.083-9.176.479-3.827.479-6.697.479-10.045v-4.784a132.716 132.716 0 0 0-1.56-17.848C363.927 294.343 382 251.99 382 205.5 382 108.186 302.814 29 205.5 29S29 108.186 29 205.5c0 46.877 18.375 89.547 48.299 121.186a129.846 129.846 0 0 0-1.252 21.847c0 2.87 0 6.218.479 10.045.478 8.132 7.18 13.873 15.32 13.394 8.138-.478 13.882-7.175 13.404-15.307a46.578 46.578 0 0 1-.471-6.302C133.361 370.298 168.091 382 205.5 382c37.857 0 72.971-11.984 101.747-32.357-.04.825-.116 1.693-.194 2.589-.125 1.432-.256 2.932-.256 4.433-.479 7.653 5.266 14.829 13.405 15.307h.957a14.58 14.58 0 0 0 7.212-1.878C294.07 395.773 251.521 411 205.5 411Zm101.747-61.357a177.997 177.997 0 0 0 27.193-23.742c-9.934-63.534-65.27-111.189-131.05-109.874-64.801 1.286-117.292 49.084-126.091 110.659a177.869 177.869 0 0 0 27.48 23.677c-.008-.62-.008-1.225-.008-1.83v-4.306c.957-55.968 47.395-100.456 103.407-99.02 56.012.956 100.534 47.357 99.098 103.326 0 .359-.011.73-.029 1.11Zm21.124 20.451c1.03-.77 2.052-1.551 3.067-2.34a14.14 14.14 0 0 1-3.067 2.34ZM147 142.5c0 31.839 25.661 57.5 57.5 57.5s57.5-25.661 57.5-57.5S236.339 85 204.5 85 147 110.661 147 142.5Zm58.5-28.5c-16.443 0-29.5 13.057-29.5 29.5 0 16.443 13.057 29.5 29.5 29.5 16.443 0 29.5-13.057 29.5-29.5 0-16.443-13.057-29.5-29.5-29.5Z"/></mask><path fill-rule="evenodd" clip-rule="evenodd" d="M205.5 411C92.236 411 0 318.764 0 205.5S92.236 0 205.5 0 411 92.236 411 205.5c0 65.862-31.188 124.613-79.562 162.254 2.343-2.36 3.857-5.553 4.083-9.176.479-3.827.479-6.697.479-10.045v-4.784a132.716 132.716 0 0 0-1.56-17.848C363.927 294.343 382 251.99 382 205.5 382 108.186 302.814 29 205.5 29S29 108.186 29 205.5c0 46.877 18.375 89.547 48.299 121.186a129.846 129.846 0 0 0-1.252 21.847c0 2.87 0 6.218.479 10.045.478 8.132 7.18 13.873 15.32 13.394 8.138-.478 13.882-7.175 13.404-15.307a46.578 46.578 0 0 1-.471-6.302C133.361 370.298 168.091 382 205.5 382c37.857 0 72.971-11.984 101.747-32.357-.04.825-.116 1.693-.194 2.589-.125 1.432-.256 2.932-.256 4.433-.479 7.653 5.266 14.829 13.405 15.307h.957a14.58 14.58 0 0 0 7.212-1.878C294.07 395.773 251.521 411 205.5 411Zm101.747-61.357a177.997 177.997 0 0 0 27.193-23.742c-9.934-63.534-65.27-111.189-131.05-109.874-64.801 1.286-117.292 49.084-126.091 110.659a177.869 177.869 0 0 0 27.48 23.677c-.008-.62-.008-1.225-.008-1.83v-4.306c.957-55.968 47.395-100.456 103.407-99.02 56.012.956 100.534 47.357 99.098 103.326 0 .359-.011.73-.029 1.11Zm21.124 20.451c1.03-.77 2.052-1.551 3.067-2.34a14.14 14.14 0 0 1-3.067 2.34ZM147 142.5c0 31.839 25.661 57.5 57.5 57.5s57.5-25.661 57.5-57.5S236.339 85 204.5 85 147 110.661 147 142.5Zm58.5-28.5c-16.443 0-29.5 13.057-29.5 29.5 0 16.443 13.057 29.5 29.5 29.5 16.443 0 29.5-13.057 29.5-29.5 0-16.443-13.057-29.5-29.5-29.5Z" fill="#F9FAFF"/><path d="m335.521 358.578-14.884-1.862-.057.462-.029.464 14.97.936Zm.479-14.829h15v-.149l-.003-.149-14.997.298Zm-259.953 4.784h15v-.201l-.005-.2-14.995.401Zm.479 10.045 14.974-.881-.03-.492-.06-.489-14.884 1.862Zm15.32 13.394-.88-14.974h-.001l.88 14.974Zm13.404-15.307 14.974-.882-.037-.623-.088-.618-14.849 2.123Zm201.803-4.433 14.943 1.302-14.943-1.302Zm-.256 4.433 14.971.936.029-.468v-.468h-15Zm13.405 15.307-.88 14.974.439.026h.441v-15ZM203.39 216.027l.298 14.997h.002l-.3-14.997Zm-98.619 128.2-14.998-.256-.002.128v.128h15Zm103.407-99.02-.384 14.995.064.001.064.001.256-14.997Zm99.098 103.326-14.995-.385-.005.192v.193h15ZM-15 205.5C-15 327.048 83.952 426 205.5 426v-30C100.52 396 15 310.48 15 205.5h-30ZM205.5-15C83.952-15-15 83.952-15 205.5h30C15 100.52 100.52 15 205.5 15v-30ZM426 205.5C426 83.952 327.048-15 205.5-15v30C310.48 15 396 100.52 396 205.5h30Zm-85.351 174.092C392.503 339.245 426 276.205 426 205.5h-30c0 61.019-28.878 115.482-73.774 150.415l18.423 23.677Zm-20.098-21.95a.836.836 0 0 1 .056-.186.957.957 0 0 1 .188-.273l21.285 21.141c4.866-4.899 7.955-11.5 8.412-18.81l-29.941-1.872Zm.449-9.109c0 3.332-.011 5.373-.363 8.183l29.768 3.724c.606-4.844.595-8.543.595-11.907h-30Zm0-4.784v4.784h30v-4.784h-30Zm-1.38-15.531a117.59 117.59 0 0 1 1.383 15.829l29.994-.596a147.515 147.515 0 0 0-1.737-19.867l-29.64 4.634ZM367 205.5c0 42.526-16.516 81.26-43.52 110.16l21.92 20.482C377.371 301.925 397 255.953 397 205.5h-30ZM205.5 44C294.529 44 367 116.471 367 205.5h30C397 99.902 311.098 14 205.5 14v30ZM44 205.5C44 116.471 116.471 44 205.5 44V14C99.902 14 14 99.902 14 205.5h30Zm44.197 110.879C60.792 287.404 44 248.38 44 205.5H14c0 50.874 19.957 97.19 52.4 131.493l21.797-20.614Zm2.845 31.753a114.851 114.851 0 0 1 1.106-19.324l-29.698-4.244a144.851 144.851 0 0 0-1.398 24.369l29.99-.801Zm.368 8.584c-.35-2.794-.363-5.292-.363-8.183h-30c0 2.848-.013 7.048.595 11.907l29.768-3.724Zm-.445.282c-.149.009-.172-.015-.104.007a.922.922 0 0 1 .29.176c.12.105.221.236.288.372.07.142.065.211.06.144l-29.947 1.763c.984 16.718 15.086 28.432 31.173 27.486l-1.76-29.948Zm-.69.548c.01.144-.015.163.01.091a.915.915 0 0 1 .179-.295c.105-.121.236-.221.369-.286.14-.069.205-.062.132-.058l1.76 29.948c16.705-.981 28.447-15.059 27.499-31.163l-29.948 1.763Zm-.495-6.995c.028 2.277.147 4.92.62 8.237l29.699-4.246a31.643 31.643 0 0 1-.321-4.366l-29.998.375ZM205.5 367c-34.233 0-65.985-10.698-92.14-28.94l-17.162 24.607C127.208 384.295 164.915 397 205.5 397v-30Zm93.079-29.599C272.246 356.044 240.142 367 205.5 367v30c41.072 0 79.195-13.012 110.414-35.115l-17.335-24.484Zm23.417 16.133c.073-.832.177-1.999.233-3.165l-29.965-1.452a55.589 55.589 0 0 1-.154 2.012l29.886 2.605Zm-.199 3.131c0-.741.065-1.595.199-3.131l-29.886-2.605c-.116 1.328-.313 3.476-.313 5.736h30Zm-.715.333c.082.005.226.036.371.111.13.066.202.137.234.174a.284.284 0 0 1 .057.098.59.59 0 0 1 .024.22l-29.942-1.873c-.962 15.393 10.524 30.221 27.496 31.218l1.76-29.948Zm.077-.026h-.957v30h.957v-30Zm-.183.072a.618.618 0 0 1 .151-.063c.042-.011.056-.009.032-.009v30a29.576 29.576 0 0 0 14.607-3.827l-14.79-26.101ZM205.5 426c49.384 0 95.064-16.351 131.861-43.898l-17.979-24.016C287.576 381.897 248.158 396 205.5 396v30Zm117.98-110.34a163.068 163.068 0 0 1-24.901 21.741l17.335 24.484a192.987 192.987 0 0 0 29.486-25.743l-21.92-20.482Zm-119.79-84.636c58.177-1.163 107.139 40.973 115.93 97.194l29.64-4.634c-11.078-70.846-72.786-124.021-146.169-122.554l.599 29.994ZM92.148 328.808c7.765-54.334 54.126-96.645 111.54-97.784l-.595-29.994c-72.189 1.433-130.81 54.718-140.643 123.534l29.698 4.244Zm21.212 9.252a162.944 162.944 0 0 1-25.163-21.681L66.4 336.993a192.954 192.954 0 0 0 29.797 25.674l17.162-24.607Zm-23.589 10.473c0 .591 0 1.288.009 2.018l29.998-.375c-.007-.512-.007-1.025-.007-1.643h-30Zm0-4.306v4.306h30v-4.306h-30Zm118.791-114.016c-64.337-1.648-117.689 49.452-118.789 113.76l29.996.513c.815-47.629 40.337-85.504 88.025-84.282l.768-29.991Zm113.709 118.706c1.65-64.315-49.507-117.609-113.837-118.708l-.512 29.995c47.694.815 85.581 40.323 84.359 87.944l29.99.769Zm-.042 1.452c.027-.561.047-1.18.047-1.836h-30c0 .063-.002.185-.012.384l29.965 1.452Zm15.131 31.733a211.276 211.276 0 0 0 3.289-2.51l-18.423-23.677a187.14 187.14 0 0 1-2.844 2.171l17.978 24.016Zm-16.565-24.919a.851.851 0 0 1 .181-.139l14.79 26.101a29.172 29.172 0 0 0 6.314-4.821l-21.285-21.141ZM204.5 185a42.394 42.394 0 0 1-42.5-42.5h-30c0 40.123 32.377 72.5 72.5 72.5v-30Zm42.5-42.5a42.394 42.394 0 0 1-42.5 42.5v30c40.123 0 72.5-32.377 72.5-72.5h-30ZM204.5 100a42.394 42.394 0 0 1 42.5 42.5h30c0-40.123-32.377-72.5-72.5-72.5v30ZM162 142.5a42.394 42.394 0 0 1 42.5-42.5V70c-40.123 0-72.5 32.377-72.5 72.5h30Zm29 1c0-8.158 6.342-14.5 14.5-14.5V99c-24.727 0-44.5 19.773-44.5 44.5h30Zm14.5 14.5c-8.158 0-14.5-6.342-14.5-14.5h-30c0 24.727 19.773 44.5 44.5 44.5v-30Zm14.5-14.5c0 8.158-6.342 14.5-14.5 14.5v30c24.727 0 44.5-19.773 44.5-44.5h-30ZM205.5 129c8.158 0 14.5 6.342 14.5 14.5h30c0-24.727-19.773-44.5-44.5-44.5v30Z" fill="#F9FAFF" mask="url(#a)"/></svg>